<svg width="160" height="189" viewBox="0 0 160 189" fill="none" xmlns="http://www.w3.org/2000/svg">
<g clip-path="url(#clip0_337_154)">
<path d="M112.35 29.2129C118.32 32.0237 124.138 34.965 126.6 37.5067C120.112 34.0925 113.337 31.7735 106.605 29.3694C99.585 26.8629 92.3247 25.3594 84.9385 24.3449C74.3393 22.8594 63.5436 23.7745 53.3419 27.0233C50.5959 27.893 48.0048 29.2897 45.2671 30.0212C41.5648 31.0101 38.2982 32.7919 34.97 34.507C30.5706 36.7748 26.4116 39.4586 22.2198 42.0921C19.2768 43.9411 16.7866 46.3369 13.9287 48.2974C14.9523 47.1311 15.9645 45.9538 17.0059 44.8034C17.3997 44.3686 17.3492 44.1377 16.8179 43.8976C15.7014 43.3932 14.6062 42.8448 13.4089 42.2718C14.597 40.9568 16.0601 40.0359 17.4708 39.0875C23.3545 35.1317 29.2445 31.1763 35.6004 28.0036C36.6101 27.4992 36.5673 27.0552 36.0081 26.23C33.8733 23.0795 31.813 19.8783 29.67 16.7336C29.3032 16.1945 29.3955 16.0235 29.872 15.7147C32.4453 14.0475 32.4813 14.0069 34.2897 16.5443C36.1797 19.1962 37.9626 21.9244 39.8286 24.5937C40.1118 24.999 40.3479 25.729 41.1494 25.2633C41.5966 25.0038 41.8706 24.8923 41.4417 24.2594C40.457 22.8071 39.6507 21.234 38.716 19.7455C38.4126 19.2623 38.4535 19.072 38.9641 18.8406C42.3404 17.2947 45.8186 15.9844 49.3742 14.919C50.3983 14.6161 51.4028 14.2397 52.436 13.974C52.9447 13.8431 52.9168 13.6025 52.7995 13.2276C52.4197 12.0154 52.0865 10.7868 51.6576 9.593C51.4595 9.03982 51.4888 8.75527 52.0975 8.60357C54.9885 7.83564 57.9196 7.22855 60.8772 6.78507C61.6989 6.67491 61.745 7.17978 61.8181 7.74118C61.9677 8.88475 62.1412 10.0254 62.271 11.1714C62.334 11.7275 62.5869 11.8826 63.1148 11.7787C65.5318 11.3689 67.9779 11.1565 70.429 11.1434C71.3257 11.1158 71.4175 10.7535 71.3877 10.0322C71.2651 7.10923 71.2122 4.18245 71.0512 1.26193C70.9973 0.295675 71.2685 0.0391308 72.2301 0.0183562C78.7365 -0.126582 85.188 0.517429 91.6376 1.24502C92.3733 1.32812 92.6329 1.51992 92.393 2.31564C91.5501 5.10426 90.7832 7.91607 89.9557 10.71C89.7086 11.5444 89.6807 11.8912 90.7731 11.6217C93.2604 11.0081 95.802 10.6134 98.2834 9.97903C100.197 9.49058 101.454 10.2423 102.483 11.7255C103.498 13.2669 104.636 14.723 105.886 16.0795C105.989 16.1576 106.076 16.2565 106.139 16.3699C106.203 16.4833 106.243 16.6087 106.256 16.7382C106.269 16.8678 106.255 16.9986 106.216 17.1226C106.176 17.2465 106.111 17.3608 106.025 17.4583C105.278 18.5706 104.588 19.7205 103.957 20.9035C103.672 21.4785 103.708 21.7021 104.413 21.7592C105.869 21.7989 107.326 21.7476 108.776 21.6055C111.306 21.4973 111.966 21.9297 112.884 24.3396C112.993 24.626 113.24 24.8966 113.246 25.1787C113.265 26.0117 114.601 26.4832 113.94 27.4079C113.481 28.0466 113.129 28.7935 112.35 29.2129ZM16.9083 40.9476C17.1879 41.1601 17.4487 41.3962 17.6882 41.6534C18.3425 42.4864 18.9436 42.5129 19.7701 41.8013C20.6724 41.0861 21.62 40.4306 22.6069 39.8388C24.0012 38.9262 23.956 37.973 22.4742 37.127C22.3771 37.0421 22.2521 36.9965 22.1235 36.999C21.9948 37.0015 21.8717 37.0519 21.778 37.1405C20.1773 38.416 18.5555 39.6673 16.9102 40.9476H16.9083ZM90.2034 2.26925C89.3706 2.11224 88.9821 2.46878 88.8657 3.27513C88.7393 4.14862 88.5094 5.00715 88.3676 5.8792C88.3157 6.2 87.8099 6.81114 88.6494 6.76476C89.2629 6.73046 90.2308 7.56725 90.4428 6.18937C90.5654 5.15844 90.7419 4.13472 90.9717 3.12247C91.1943 2.27893 90.8318 2.18567 90.2053 2.26925H90.2034ZM82.2132 10.323C82.5209 10.3472 82.7859 10.3496 83.0445 10.3921C84.0283 10.5544 84.5139 10.2317 84.4841 9.14176C84.462 8.34508 84.6658 7.54454 84.6985 6.74254C84.7134 6.37682 85.2274 5.73522 84.3889 5.68305C83.7537 5.64343 82.9681 5.47772 82.8373 6.54785C82.6863 7.79674 82.433 9.03355 82.2151 10.323H82.2132ZM25.2321 35.8805C26.4341 37.185 26.4279 37.1748 27.8285 36.2714C28.5334 35.8168 29.2709 35.4095 29.9922 34.9809C30.3359 34.7766 30.8807 34.5988 30.3561 34.1046C29.947 33.7181 29.8378 32.6272 28.8964 33.2576C27.6501 34.091 26.4563 34.9998 25.2326 35.881L25.2321 35.8805ZM102.442 17.0216C102.573 16.6375 102.328 16.5815 102.091 16.5868C101.526 16.5984 100.739 16.1785 100.511 17.0042C100.298 17.7719 99.8187 18.3637 99.5191 19.0628C99.3984 19.3445 98.933 19.6503 99.4936 19.8798C99.9557 20.0687 100.615 20.6654 100.922 20.2035C101.511 19.1846 102.02 18.1209 102.444 17.0221L102.442 17.0216ZM103.906 27.3093C104.454 27.3808 105.942 25.9155 105.752 25.385C105.477 24.6154 104.55 24.798 103.915 24.7C102.635 24.5019 102.77 25.8532 102.602 26.4484C102.347 27.3581 103.572 26.8987 103.907 27.3098L103.906 27.3093ZM43.1188 18.7526C42.1505 18.8357 41.9245 19.2793 42.5563 20.145C42.9361 20.6654 43.1554 21.8538 44.1641 21.2108C45.0166 20.6673 43.9372 20.13 43.8535 19.5595C43.8045 19.2247 43.6761 18.7135 43.1188 18.7526Z" fill="white"/>
<path d="M118.864 86.0477C118.864 89.5514 118.854 93.0531 118.872 96.5577C118.876 97.379 118.61 97.7878 117.729 97.6375C117.423 97.6026 117.113 97.6138 116.811 97.6708C115.535 97.8486 114.647 97.5486 114.578 96.0325C114.569 95.7759 114.46 95.5332 114.274 95.3568C114.089 95.1805 113.841 95.0846 113.586 95.09C109.926 94.6757 106.234 94.6309 102.565 94.9561C99.2904 95.3108 96.1622 96.164 93.6269 98.4897C89.1861 102.563 89.0274 108.558 92.8431 112.659C95.8151 115.853 99.5692 116.993 103.758 117.068C106.939 117.125 110.112 116.94 113.285 116.727C114.109 116.672 114.61 116.527 114.597 115.616C114.581 114.465 115.155 114.183 116.258 114.183C119.137 114.183 119.135 114.125 119.127 116.971C119.117 120.779 119.103 124.588 119.111 128.396C119.111 129.163 118.871 129.539 118.04 129.459C117.39 129.39 116.734 129.39 116.083 129.459C115.17 129.568 114.599 129.266 114.415 128.34C114.279 127.658 113.78 127.685 113.261 127.706C110.314 127.823 107.368 128.012 104.42 128.03C98.9495 128.062 93.6192 127.127 88.7206 124.651C84.1919 122.362 80.5733 119.02 78.3736 114.264C75.5425 108.144 75.7671 102.125 79.0025 96.3118C81.1449 92.5508 84.3253 89.4936 88.1595 87.5097C92.5423 85.1598 97.4307 83.9228 102.398 83.9065C106.149 83.8582 109.913 83.921 113.669 83.9973C114.631 84.0166 115.141 83.7558 115.179 82.7895C115.209 82.0358 115.57 81.8629 116.285 81.8614C118.915 81.8566 118.918 81.8286 118.987 84.4249C119.002 84.9645 118.987 85.5052 118.987 86.0458L118.864 86.0477Z" fill="white"/>
<path d="M54.6863 96.7925C57.3678 93.9754 59.8791 91.3384 62.3884 88.7006C65.9144 84.994 69.442 81.2873 72.9711 77.5804C73.1038 77.4412 73.301 77.3388 73.3798 77.177C73.7164 76.489 74.8021 76.3218 74.19 74.9546C73.6582 73.7685 74.0751 72.1466 74.1006 70.718C74.1126 70.0083 74.7093 70.2426 75.0622 70.2383C78.1721 70.2025 81.282 70.1972 84.39 70.19C89.113 70.1808 93.837 70.2136 98.5595 70.145C99.5658 70.1305 99.8005 70.4277 99.7284 71.3659C99.6399 72.5157 99.6726 73.6767 99.6899 74.8323C99.6976 75.3227 99.5384 75.557 99.0355 75.5256C98.7668 75.5119 98.4976 75.5142 98.2292 75.5324C96.5862 75.629 95.19 75.8706 93.9019 77.32C90.8126 80.7874 87.646 84.2065 84.351 87.4778C80.6286 91.1737 77.1806 95.1267 73.4534 98.8144C71.1936 101.05 69.0934 103.448 66.8836 105.735C66.4138 106.222 66.6114 106.479 66.9576 106.846C69.4049 109.449 71.8619 112.045 74.2809 114.673C78.9659 119.762 83.6402 124.862 88.3038 129.972C91.3084 133.245 94.3351 136.495 97.3334 139.775C98.0364 140.543 98.9773 140.303 99.8091 140.432C101.746 140.733 101.78 140.681 101.741 142.693C101.719 143.716 102.233 145.076 101.511 145.668C100.901 146.167 99.6024 145.836 98.6085 145.838C92.0363 145.85 85.4641 145.834 78.8919 145.879C78.023 145.885 77.7514 145.653 77.8076 144.79C77.875 143.752 77.8124 142.706 77.8076 141.663C77.8076 141.432 77.7413 141.052 77.8461 140.993C79 140.342 78.0202 139.912 77.6672 139.533C75.7022 137.424 73.702 135.347 71.7052 133.266C68.5462 129.971 65.3847 126.678 62.2206 123.388C59.782 120.845 57.349 118.296 54.6406 115.828C54.6406 118.346 54.6406 120.864 54.6406 123.381C54.644 128.705 54.6695 134.028 54.6329 139.351C54.6267 140.245 54.8334 140.522 55.7667 140.525C57.5294 140.531 57.5308 140.607 57.5577 142.425C57.5707 143.275 57.5356 144.127 57.5991 144.972C57.6539 145.697 57.3586 145.895 56.6817 145.893C50.384 145.876 44.0853 145.876 37.7857 145.893C37.0578 145.896 36.7506 145.695 36.8159 144.927C36.9401 143.97 36.9739 143.003 36.9169 142.039C36.7957 140.88 37.3155 140.548 38.3156 140.552C38.5809 140.512 38.8488 140.49 39.1171 140.487C39.8893 140.607 40.0787 140.298 40.0701 139.542C40.0287 136.032 40.0537 132.523 40.046 129.013C40.008 111.758 39.9499 94.5034 39.9629 77.249C39.9629 76.0015 39.5989 75.4329 38.4243 75.4677C37.1083 75.5073 36.7448 74.8903 36.9015 73.6656C36.9919 72.8587 36.9948 72.0444 36.9102 71.2369C36.8328 70.3789 37.1987 70.2223 37.9646 70.2223C44.145 70.2449 50.3255 70.2399 56.5062 70.2074C57.4096 70.2016 57.7313 70.4412 57.6577 71.3669C57.5739 72.4452 57.5651 73.5281 57.6313 74.6077C57.6794 75.3995 57.3909 75.5822 56.6519 75.5831C54.5262 75.587 54.4839 75.6174 54.4882 77.7026C54.5065 83.79 54.5613 89.8775 54.6041 95.9649C54.6103 96.1596 54.6435 96.347 54.6863 96.7925ZM82.7177 142.057C81.9378 142.18 81.2642 142.306 80.5848 142.39C79.9266 142.471 79.8059 142.88 79.8285 143.453C79.8535 144.097 80.2795 144.044 80.716 144.044C86.7512 144.041 92.7862 144.038 98.8211 144.038C99.2644 144.038 99.7745 144.153 99.8659 143.452C99.9014 143.318 99.9029 143.178 99.8702 143.044C99.8376 142.91 99.7719 142.787 99.6792 142.685C99.5865 142.583 99.4697 142.506 99.3398 142.462C99.2098 142.417 99.0707 142.407 98.9355 142.43C97.0156 142.489 95.8795 141.232 94.7818 139.972C91.3656 136.048 87.7475 132.316 84.1909 128.524C80.3564 124.438 76.5989 120.279 72.7336 116.22C70.1574 113.515 67.6754 110.718 65.067 108.04C64.5925 107.553 64.0165 107.033 63.84 106.426C63.7044 105.96 64.5329 105.696 64.8319 105.252C64.9641 105.017 65.1166 104.795 65.2878 104.588C68.1693 101.627 71.0825 98.696 73.9424 95.7137C78.0293 91.45 82.0681 87.1396 86.1497 82.8692C88.3264 80.5917 90.6424 78.4408 92.7099 76.0696C93.8639 74.7459 95.0602 73.8187 96.8262 73.7811C97.406 73.7685 97.8594 73.7936 97.8479 72.9597C97.8359 72.0901 97.3281 72.1867 96.7781 72.194C93.0624 72.2331 89.3462 72.2751 85.6304 72.2959C82.7456 72.3123 79.865 72.3036 76.9821 72.2959C76.4738 72.2959 76.0926 72.3312 76.0801 73.0129C76.068 73.6627 76.3767 73.7671 76.9205 73.7917C77.5937 73.8221 78.2625 73.9502 79.076 74.054C78.1192 75.1213 77.2297 76.0493 76.3248 76.975C73.8832 79.4723 71.545 82.0706 69.1294 84.594C63.944 90.0079 58.7468 95.4112 53.5376 100.804C53.3044 101.045 53.1121 101.513 52.751 101.36C52.4236 101.222 52.5553 100.758 52.5558 100.413C52.5635 95.7905 52.6462 91.1655 52.5313 86.5473C52.4481 83.2093 52.5058 79.8733 52.4443 76.5373C52.3986 74.0637 52.4318 74.0342 54.9046 73.8047C55.5349 73.7463 55.6739 73.4844 55.6739 72.9414C55.6768 72.2993 55.2522 72.3133 54.8137 72.3133C53.0453 72.3133 51.277 72.3119 49.5089 72.309C46.2804 72.3112 43.0516 72.3167 39.8225 72.3254C39.4671 72.3254 38.9878 72.2056 38.957 72.8018C38.9407 73.1259 38.7978 73.5564 39.2604 73.6796C39.6382 73.7479 40.0209 73.7854 40.4047 73.7917C41.9472 73.9366 41.9534 73.94 41.9563 75.5111C41.9884 92.8748 42.0216 110.238 42.0558 127.602C42.0655 131.891 42.1012 136.18 42.1631 140.468C42.1799 141.547 42.0698 142.352 40.7158 142.283C40.3721 142.314 40.0313 142.372 39.6965 142.455C39.0296 142.529 38.9301 142.984 38.9474 143.526C38.969 144.207 39.5051 144.057 39.8854 144.064C41.576 144.085 43.2665 144.075 44.9571 144.074C48.1862 144.074 51.4149 144.065 54.6435 144.074C55.2546 144.074 55.7013 144.014 55.622 143.209C55.5604 142.577 55.1041 142.726 54.7305 142.574C53.9439 142.261 52.6255 142.903 52.6491 141.105C52.739 134.318 52.6871 127.529 52.6823 120.741C52.6823 117.805 52.6626 114.87 52.6592 111.935C52.6592 111.643 52.5419 111.245 52.9073 111.124C53.2323 111.015 53.4569 111.341 53.6766 111.544C54.0713 111.906 54.3776 112.348 54.7608 112.731C56.7136 114.679 58.6368 116.658 60.5306 118.667C62.9346 121.204 65.2815 123.796 67.7019 126.317C70.094 128.808 72.6288 131.166 74.9511 133.719C77.4739 136.49 80.2333 139.033 82.7177 142.057Z" fill="white"/>
<path d="M141.023 55.6032C144.437 59.4165 147.068 63.7681 149.593 68.1916C153.357 74.9065 156.153 82.1248 157.896 89.63C159.122 94.8725 159.812 100.227 159.955 105.61C160.12 111.093 159.744 116.578 158.833 121.986C157.367 130.574 154.495 138.859 150.334 146.503C147.586 151.669 144.072 156.319 140.317 160.787C136.499 165.304 132.188 169.377 127.467 172.93C123.586 175.813 119.46 178.347 115.136 180.503C110.037 183.086 104.673 185.104 99.1401 186.522C95.5052 187.447 91.8114 188.12 88.0848 188.536C84.307 188.915 80.5101 189.07 76.7141 189C72.2365 188.941 67.773 188.483 63.3758 187.632C58.422 186.794 53.5715 185.426 48.9072 183.551C43.5395 181.409 38.4033 178.723 33.5784 175.533C30.6487 173.567 27.8373 171.428 25.1589 169.127C26.1614 169.461 26.8947 170.227 27.7212 170.824C31.1749 173.319 34.68 175.764 38.502 177.62C42.0255 179.358 45.6364 180.911 49.3202 182.272C53.9697 183.897 58.7499 185.116 63.6076 185.917C69.2057 186.911 74.8913 187.032 80.5577 186.787C87.3641 186.472 94.1017 185.277 100.604 183.232C105.13 181.813 109.514 179.97 113.698 177.728C118.227 175.394 122.541 172.66 126.588 169.558C131.456 165.669 135.878 161.247 139.771 156.373C147.994 146.143 153.607 134.051 156.125 121.146C158.643 108.242 157.989 94.9149 154.219 82.3222C151.868 74.3085 148.232 66.9239 143.749 59.9296C142.98 58.7334 142.146 57.5811 141.313 56.4294C141.141 56.1777 141.047 55.8804 141.044 55.5752L141.023 55.6032Z" fill="white"/>
<path d="M114.245 61.9544C101.584 52.5145 87.3842 48.4335 71.7319 50.2235C57.1892 51.8865 44.9141 58.272 35.1719 69.3511C25.9484 79.8403 20.9821 92.0388 20.6229 106.087C20.2662 120.033 24.5113 132.434 32.9654 143.442C13.5887 122.885 11.8698 87.2544 35.7411 63.9314C46.8893 53.0392 60.464 47.7142 75.9529 47.6127C90.4658 47.517 103.247 52.4136 114.245 61.9544Z" fill="white"/>
<path d="M18.9446 69.2469C16.8458 67.2859 14.7615 65.3065 12.6373 63.3755C12.0603 62.8537 11.8199 62.4377 12.4108 61.7778C12.758 61.416 13.0343 60.9919 13.2253 60.5274C13.6537 59.3438 14.2153 59.4008 15.1702 60.0255C18.0267 61.8923 20.9496 63.6562 23.8359 65.4776C25.1745 66.3225 25.1451 66.3578 24.2585 67.6188C23.895 68.1353 23.5979 68.2415 23.0565 67.8773C20.4779 66.1481 17.8806 64.4471 15.288 62.7387C14.9537 62.4451 14.5376 62.2619 14.0961 62.214L20.036 67.972C20.5851 68.5034 21.1313 69.0392 21.6818 69.5697C22.1405 70.0122 22.6435 70.3528 22.0843 71.1543C21.5972 71.8505 21.1938 71.9674 20.4163 71.6602C17.1858 70.3823 13.9254 69.174 10.5395 68.1647C11.6002 68.8194 12.6503 69.4919 13.7239 70.1243C15.6731 71.2722 17.6312 72.4048 19.598 73.5221C20.0731 73.7908 20.2182 74.0415 19.8466 74.4961C19.6429 74.7267 19.4716 74.9842 19.3374 75.2614C19.0206 75.9977 18.6244 75.9784 18.0032 75.5735C15.3712 73.8565 12.7402 72.1351 10.0544 70.505C7.81618 69.1464 7.84742 69.2397 9.136 67.0144C9.75721 65.9414 10.2515 65.7549 11.4357 66.2738C13.8811 67.3458 16.4525 68.1285 18.9446 69.2469Z" fill="white"/>
<path d="M108.702 39.0973C106.469 42.113 104.431 44.8615 102.399 47.6148C102.052 48.0854 101.81 48.5197 101.047 48.112C100.352 47.7404 99.9855 47.4738 100.211 46.5771C100.913 43.7749 101.52 40.9452 102.156 38.1223C102.297 37.5852 102.341 37.027 102.285 36.4744C101.465 38.3619 100.64 40.2476 99.8263 42.1381C99.2946 43.373 98.7527 44.602 98.2656 45.8582C98.029 46.4669 97.8329 46.7017 97.1362 46.3283C95.6581 45.5383 95.613 45.5784 96.3428 43.9894C97.7853 40.8438 99.2657 37.7131 100.705 34.5646C100.96 34.0075 101.193 33.8515 101.805 34.136C104.638 35.4521 104.655 35.4342 103.954 38.4581C103.702 39.5456 103.409 40.6235 103.118 41.7008C102.839 42.7367 102.541 43.7667 102.18 45.0441C103.571 43.1087 104.814 41.3781 106.06 39.649C106.306 39.306 106.551 38.9601 106.814 38.6291C108.124 36.9758 108.127 36.9773 110.053 37.9779C110.348 38.1581 110.656 38.3174 110.973 38.4547C111.443 38.6195 111.524 38.79 111.292 39.2876C109.668 42.7739 108.073 46.2733 106.506 49.786C106.266 50.3261 106.037 50.5107 105.51 50.1218C105.251 49.9538 104.966 49.8314 104.667 49.7599C103.936 49.5464 103.981 49.186 104.287 48.5758C105.754 45.6519 107.172 42.7019 108.6 39.7592C108.653 39.542 108.687 39.3205 108.702 39.0973Z" fill="white"/>
<path d="M43.7299 45.7398C42.5485 43.3285 41.0061 41.1409 39.7257 38.7871C39.2727 37.9551 39.7372 37.7725 40.2545 37.5198C40.7522 37.2783 41.2272 36.7343 41.7326 37.6479C43.538 40.9114 45.4088 44.1382 47.2576 47.3776C47.6249 48.0211 47.6485 48.3226 46.834 48.8313C45.5868 49.6101 44.8804 49.3927 43.9145 48.4265C42.1571 46.6659 40.3973 44.8851 38.2145 43.5324C38.6583 44.1904 39.0602 44.8851 39.5549 45.5002C40.7676 47.0143 41.471 48.8381 42.5716 50.4155C43.1005 51.1735 42.3355 51.1518 42.0427 51.4441C41.1859 52.2925 40.6762 52.0596 40.1228 51.0431C38.3784 47.8395 36.5648 44.674 34.7377 41.5148C34.3809 40.8979 34.4343 40.6607 35.1065 40.3394C36.9644 39.4519 36.9336 39.4214 38.4082 40.807C40.1709 42.4622 41.9547 44.0962 43.7299 45.7398Z" fill="white"/>
<path d="M15.8905 123.602C15.918 124.092 15.8412 124.582 15.6652 125.04C15.4893 125.499 15.2182 125.914 14.8701 126.258C14.522 126.603 14.1049 126.869 13.6464 127.039C13.188 127.209 12.6987 127.278 12.2113 127.244C11.4117 127.159 10.5809 126.426 10.0155 126.605C9.49281 126.772 9.15814 127.774 8.4701 128.175C7.23778 128.892 5.74488 128.957 4.55246 129.769C4.4938 129.809 4.36734 129.853 4.34619 129.83C3.79133 129.202 3.85767 128.332 3.51917 127.612C3.32973 127.21 3.70478 127.1 3.98558 126.976C4.83758 126.633 5.7186 126.367 6.61802 126.182C6.92387 126.147 7.21532 126.033 7.46334 125.849C7.71136 125.666 7.90729 125.421 8.03161 125.138C8.13413 124.845 8.16729 124.533 8.12848 124.225C8.08967 123.917 7.97996 123.623 7.80804 123.365C7.51571 122.898 7.02672 123.336 6.6589 123.414C5.5761 123.645 4.51206 123.968 3.44226 124.26C2.0628 124.637 2.43256 123.376 2.11715 122.795C1.78058 122.179 2.04935 121.892 2.73307 121.702C6.35215 120.696 9.95247 119.625 13.5653 118.592C13.9668 118.478 14.475 118.217 14.6678 118.942C15.1419 120.724 15.853 122.449 15.8905 123.602ZM13.6841 122.815C13.636 122.56 13.7037 122.032 13.4811 121.838C12.6589 121.12 11.8944 122.029 11.0771 122.097C10.6179 122.136 9.83418 122.146 9.76302 122.915C9.67695 123.842 10.6006 124.733 11.5814 124.755C12.896 124.785 13.7057 124.085 13.6841 122.814V122.815Z" fill="white"/>
<path d="M46.2465 167.706C47.8736 170.287 45.2493 172.058 45.207 174.439C44.755 174.175 44.4954 174.02 44.2319 173.871C42.5202 172.901 42.5101 172.897 43.3635 171.053C43.7063 170.452 43.9942 169.821 44.2237 169.169C44.3224 168.917 44.3311 168.638 44.2483 168.381C44.1656 168.123 43.9965 167.903 43.7698 167.756C42.677 166.961 42.6159 166.964 42.0067 168.157C41.4836 169.183 40.8811 170.174 40.4397 171.234C40.1652 171.894 39.8801 171.789 39.4055 171.548C37.6837 170.678 37.6943 170.693 38.5968 168.932C40.1383 165.924 41.674 162.913 43.1751 159.885C43.4689 159.291 43.6905 159.09 44.356 159.435C45.8042 160.124 47.2104 160.898 48.5674 161.754C49.0396 162.025 49.4079 162.447 49.6134 162.952C49.8188 163.458 49.8495 164.018 49.7006 164.544C49.3641 165.811 48.8304 167.038 47.3634 167.436C46.9961 167.538 46.6235 167.616 46.2465 167.706ZM47.0466 163.696C46.9677 163.305 46.7809 162.944 46.5075 162.655C46.234 162.365 45.885 162.159 45.5003 162.059C44.7382 161.813 44.7622 162.627 44.4978 163.026C44.2877 163.343 44.0954 163.674 43.9141 164.01C43.2483 165.24 43.624 165.89 45.0411 165.962C45.9393 166.011 47.047 164.844 47.0466 163.698V163.696Z" fill="white"/>
<path d="M114.646 162.482C117.714 162.482 118.095 165.449 119.983 166.77C119.528 167.084 119.137 167.371 118.732 167.632C117.406 168.484 117.354 168.456 116.489 167.07C116.083 166.421 115.632 165.798 115.166 165.191C115.012 164.967 114.796 164.792 114.545 164.688C114.293 164.584 114.018 164.555 113.75 164.604C112.585 164.804 112.347 165.388 112.995 166.366C113.607 167.291 114.117 168.291 114.792 169.165C115.264 169.776 114.992 170.034 114.527 170.329C114.268 170.494 113.981 170.619 113.739 170.806C113.254 171.178 112.962 171.178 112.585 170.582C110.534 167.338 108.435 164.126 106.334 160.916C106.038 160.464 106.061 160.244 106.537 159.934C107.911 158.962 109.358 158.097 110.864 157.347C111.895 156.879 112.787 156.927 113.549 157.909C113.95 158.425 114.622 158.739 114.853 159.388C115.201 160.375 115.507 161.39 114.646 162.482ZM113.023 161.568C112.944 161.175 112.785 160.801 112.555 160.473C112.325 160.144 112.029 159.867 111.687 159.659C111.372 159.51 111.02 159.455 110.674 159.503C110.329 159.552 110.005 159.7 109.742 159.93C109.346 160.22 109.309 160.436 109.521 160.878C109.898 161.667 110.569 162.29 110.771 163.173C110.872 163.622 111.259 163.489 111.519 163.46C112.087 163.397 113.049 162.159 113.023 161.568Z" fill="white"/>
<path d="M128.719 65.9629C130.508 64.7242 131.929 63.2705 133.441 61.9312C133.874 61.5486 134.347 61.2172 134.766 60.8311C135.371 60.2722 135.731 60.4403 136.233 60.9862C136.882 61.6901 136.934 62.1216 136.089 62.7516C133.168 64.9369 130.283 67.1717 127.435 69.4559C126.78 69.9787 126.514 69.7753 126.099 69.225C125.028 67.8027 125.016 67.8239 126.043 66.3605C127.409 64.41 128.765 62.4522 130.109 60.4872C130.293 60.2195 130.579 59.975 130.502 59.5402C128.496 61.4344 126.379 63.207 124.163 64.8484C123.902 65.0324 123.62 65.573 123.202 65.1691C122.769 64.7327 122.384 64.2508 122.054 63.7318C121.933 63.5478 122.254 63.4574 122.385 63.3565C125.51 60.9408 128.647 58.5353 131.771 56.1144C132.118 55.8448 132.318 55.8655 132.628 56.1878C134.116 57.7391 134.099 58.0261 132.751 59.7726C131.462 61.4418 130.267 63.1825 129.028 64.8899C128.907 65.0387 128.818 65.2104 128.765 65.3948C128.712 65.5791 128.696 65.7724 128.719 65.9629Z" fill="white"/>
<path d="M17.703 131.903C18.1847 131.955 18.6496 132.11 19.0658 132.359C19.4819 132.608 19.8395 132.945 20.1138 133.346C21.6909 135.534 22.2178 137.896 19.4888 139.53C17.454 140.749 15.498 142.132 13.1584 142.733C10.9856 143.29 9.34841 142.394 8.35024 140.263C7.92319 139.393 7.83947 138.392 8.11591 137.462C8.39235 136.532 9.00849 135.742 9.84075 135.249C11.7738 134.07 13.7979 133.048 15.8937 132.194C16.4729 131.983 17.087 131.884 17.703 131.903ZM17.8429 134.421C16.0437 134.504 14.8383 135.653 13.4228 136.281C12.499 136.648 11.6338 137.149 10.8548 137.768C10.6951 137.875 10.5587 138.014 10.4538 138.175C10.3489 138.337 10.2777 138.518 10.2445 138.708C10.2113 138.898 10.2167 139.093 10.2606 139.28C10.3044 139.468 10.3857 139.645 10.4995 139.8C10.9399 140.48 11.5962 140.625 12.3987 140.299C14.5477 139.409 16.6061 138.313 18.5454 137.026C18.815 136.869 19.0157 136.615 19.1078 136.316C19.1998 136.017 19.1764 135.694 19.0421 135.411C18.7896 134.789 18.4435 134.346 17.8429 134.421Z" fill="white"/>
<path d="M69.8583 34.8462C69.7991 36.3188 70.0948 37.7628 70.2237 39.2195C70.2871 39.9384 70.5804 40.5688 71.4877 40.5722C71.6608 40.5939 71.8365 40.5765 72.002 40.5213C72.1675 40.466 72.3187 40.3743 72.4444 40.2529C72.5702 40.1315 72.6673 39.9833 72.7288 39.8193C72.7903 39.6553 72.8146 39.4796 72.7998 39.305C72.8263 38.8832 72.884 38.4629 72.9027 38.0411C72.9239 37.5686 72.8239 37.1681 72.2147 37.2444C71.6829 37.3111 71.569 37.0092 71.5296 36.5608C71.4675 35.854 71.4488 35.4061 72.4571 35.3607C75.2583 35.2351 75.2611 35.1675 75.4496 37.901C75.529 39.0518 75.5794 40.2046 75.6381 41.3568C75.653 41.6467 75.7785 42.0859 75.3188 42.0603C74.8592 42.0347 74.1591 42.4873 73.9663 41.9298C73.6495 41.0119 73.323 41.4361 72.9816 41.7883C71.3843 43.4352 68.2336 42.3013 67.8225 40.2785C67.2614 37.5184 66.8393 34.7302 67.3898 31.915C67.7826 29.9023 69.5101 28.851 71.857 29.0931C73.798 29.2931 75.0092 30.6633 75.0582 32.6504C75.0678 33.0489 75.0039 33.234 74.5885 33.2224C74.1677 33.1917 73.7452 33.1946 73.3249 33.2311C72.7648 33.3065 72.4849 33.2065 72.4388 32.5465C72.3859 31.788 72.0782 31.0522 71.1665 31.0541C70.1766 31.0541 69.9256 31.8363 69.8684 32.6513C69.8188 33.3794 69.8583 34.1143 69.8583 34.8462Z" fill="white"/>
<path d="M140.212 141.769C139.374 141.739 138.552 141.538 137.794 141.178C136.101 140.283 134.388 139.423 132.729 138.469C130.609 137.25 130.288 135.227 131.751 132.8C131.996 132.36 132.328 131.976 132.726 131.67C133.125 131.364 133.581 131.143 134.067 131.02C134.553 130.898 135.059 130.876 135.554 130.957C136.048 131.038 136.522 131.219 136.944 131.49C137.072 131.569 137.223 131.587 137.25 131.777C137.376 132.66 136.147 133.758 135.242 133.565C134.009 133.302 133.395 133.604 133.232 134.579C133.158 134.82 133.169 135.079 133.262 135.312C133.356 135.546 133.527 135.739 133.746 135.861C135.669 136.976 137.508 138.246 139.645 138.953C140.524 139.243 141.386 139.333 141.825 138.358C142.263 137.384 141.603 136.795 140.851 136.286C140.527 136.066 139.812 136.073 139.927 135.622C140.176 134.898 140.515 134.209 140.937 133.572C141.061 133.35 141.279 133.495 141.437 133.595C142.676 134.382 144.087 135.144 144.233 136.761C144.398 138.597 143.536 140.117 142.094 141.27C141.553 141.707 140.88 141.691 140.212 141.769Z" fill="white"/>
<path d="M87.3285 166.497C89.2637 166.487 90.4619 167.394 90.8148 168.933C90.9283 169.428 90.8422 169.668 90.3225 169.709C89.5888 169.768 88.7041 170.536 88.2891 169.199C88.2321 168.949 88.0885 168.728 87.884 168.575C87.6795 168.422 87.4275 168.347 87.1732 168.364C86.9227 168.394 86.6864 168.497 86.4925 168.659C86.2986 168.821 86.1555 169.036 86.0803 169.278C85.9788 169.533 85.9619 169.813 86.0321 170.078C86.1023 170.343 86.2558 170.578 86.4697 170.749C87.1903 171.329 88.0146 171.766 88.8983 172.035C92.1399 173.13 92.5496 175.758 91.9558 177.84C91.5072 179.412 89.3979 180.219 87.5804 180.052C86.7699 179.975 86.0148 179.605 85.4547 179.011C84.8946 178.417 84.5673 177.64 84.5335 176.823C84.5219 176.539 84.4878 176.258 84.8595 176.202C85.3858 176.097 85.919 176.031 86.4548 176.003C87.2722 175.999 87.0356 176.744 87.2241 177.195C87.2789 177.35 87.3648 177.493 87.4765 177.614C87.5882 177.734 87.7233 177.831 87.8734 177.897C88.0236 177.963 88.1857 177.998 88.3497 177.999C88.5137 178 88.6762 177.967 88.8272 177.903C89.709 177.639 89.8532 176.929 89.6402 176.147C89.5158 175.801 89.3168 175.486 89.0575 175.226C88.7982 174.965 88.485 174.765 88.1401 174.64C87.2472 174.202 86.3279 173.814 85.4475 173.357C83.3088 172.248 82.9069 168.946 84.7123 167.357C85.4654 166.787 86.3857 166.484 87.3285 166.497Z" fill="white"/>
<path d="M148.657 113.468C148.321 113.468 148.183 113.51 148.095 113.461C147.677 113.225 146.706 113.811 146.85 112.854C146.959 112.138 146.634 110.791 148.23 111.081C148.532 111.165 148.855 111.129 149.131 110.983C149.408 110.836 149.619 110.588 149.721 110.291C149.817 110.035 149.832 109.756 149.766 109.492C149.7 109.227 149.555 108.989 149.35 108.81C149.134 108.592 148.853 108.45 148.55 108.405C148.247 108.36 147.937 108.415 147.667 108.56C146.703 108.933 146.074 109.734 145.354 110.422C144.299 111.429 143.166 112.424 141.594 112.201C139.52 111.907 138.368 111.148 138.252 109.004C138.127 106.723 139.252 105.121 141.213 104.893C141.688 104.838 142.456 104.511 142.627 105.35C142.829 106.34 142.263 107.153 141.422 107.212C140.581 107.271 140.109 107.71 140.164 108.523C140.226 109.428 140.869 109.747 141.709 109.663C142.17 109.618 142.6 109.408 142.92 109.071C143.759 108.226 144.603 107.384 145.479 106.58C147.09 105.1 150.239 106.006 151.364 107.485C152.447 108.912 151.813 111.89 150.291 112.996C149.804 113.311 149.236 113.475 148.657 113.468Z" fill="white"/>
<path d="M126.898 157.834C125.06 155.248 123.264 152.631 121.361 150.094C120.724 149.245 120.81 148.809 121.604 148.172C122.778 147.229 122.753 147.153 123.547 148.441C125.442 151.516 127.3 154.615 129.207 157.682C129.286 157.77 129.346 157.873 129.382 157.986C129.418 158.098 129.431 158.217 129.419 158.335C129.407 158.453 129.371 158.567 129.313 158.669C129.254 158.772 129.175 158.862 129.081 158.932C128.582 159.411 128.083 159.892 127.627 160.41C127.291 160.79 127.047 160.59 126.747 160.392C123.742 158.411 120.718 156.463 117.739 154.446C117.227 154.099 116.133 153.97 116.302 153.383C116.494 152.716 117.36 152.24 117.947 151.692C118.317 151.347 118.583 151.697 118.831 151.888C121.464 153.927 124.277 155.72 126.898 157.834Z" fill="white"/>
<path d="M29.1662 61.6617C26.978 58.0286 24.8081 54.4264 22.6401 50.8237C22.5617 50.6932 22.404 50.4976 22.4449 50.4261C22.9512 49.541 23.8873 49.0999 24.5797 48.4047C24.9441 48.0399 25.3105 48.3278 25.6139 48.539C28.8503 50.7923 32.0732 53.0644 35.3138 55.3105C35.723 55.5936 35.7341 55.7748 35.3537 56.0579C35.1407 56.2212 34.9418 56.4022 34.759 56.599C34.1306 57.257 33.5541 57.5508 32.8179 56.6618C32.5775 56.3719 32.1477 55.7472 31.7217 56.0386C31.0413 56.5048 30.2658 56.9816 29.8946 57.745C29.7023 58.1392 30.1802 58.5987 30.4716 58.9151C31.237 59.7432 30.9206 60.3061 30.1465 60.8476C29.809 61.0839 29.508 61.3752 29.1662 61.6617ZM25.0312 51.001C25.9303 52.3624 26.7275 53.5345 27.4877 54.7307C28.4233 56.2028 28.5118 56.2077 29.7931 55.0689C30.2812 54.6341 30.2701 54.3882 29.7504 54.0201C29.1754 53.516 28.5725 53.0452 27.9444 52.6098C27.0362 52.117 26.4856 50.9957 25.0302 51.001H25.0312Z" fill="white"/>
<path d="M140.352 123.39C141.032 123.46 141.154 123.266 141.231 122.746C141.341 121.876 141.592 121.029 141.976 120.241C142.372 119.481 142.951 120.334 143.466 120.32C143.923 120.307 144.136 120.57 143.984 121.088C143.756 121.861 143.617 122.662 143.386 123.435C143.227 123.966 143.407 124.173 143.902 124.353C146.329 125.238 146.371 125.229 147.094 122.773C147.137 122.625 147.182 122.477 147.223 122.329C147.57 121.056 148.455 120.761 149.508 121.547C149.758 121.734 149.693 121.921 149.634 122.147C149.153 123.966 148.674 125.786 148.197 127.606C148.087 128.03 147.994 128.228 147.424 128.066C143.637 126.991 139.832 125.979 136.032 124.955C135.511 124.814 135.4 124.528 135.551 124.025C136.058 122.335 136.582 120.644 137.011 118.934C137.27 117.902 137.886 118.403 138.432 118.463C139.167 118.547 139.259 118.927 139.044 119.574C138.766 120.413 138.623 121.298 138.33 122.13C138.09 122.806 138.34 123.031 138.955 123.121C139.483 123.2 140.006 123.323 140.352 123.39Z" fill="white"/>
<path d="M38.0222 157.744C37.4634 157.333 36.911 156.936 36.3677 156.527C34.7853 155.333 34.8262 155.368 33.5583 156.806C32.9948 157.447 33.0131 157.793 33.7309 158.219C34.1364 158.506 34.5212 158.821 34.8825 159.163C35.9773 160.047 35.9359 160.564 34.7647 161.439C34.4281 161.689 34.2886 161.471 34.0915 161.316C33.4275 160.796 32.7568 160.284 32.1106 159.742C31.661 159.366 31.3826 159.448 31.011 159.901C29.2478 162.052 29.2319 162.041 31.4701 163.682C31.5932 163.772 31.7649 163.827 31.8437 163.943C32.0596 164.266 32.7765 164.337 32.5337 164.83C32.2307 165.357 31.8273 165.82 31.3466 166.192C31.1263 166.38 30.8585 166.041 30.6609 165.887C29.2425 164.779 27.8621 163.62 26.4168 162.549C25.924 162.184 26.0033 161.954 26.31 161.571C28.7574 158.523 31.1989 155.469 33.6347 152.41C33.9069 152.069 34.13 152.028 34.4872 152.297C36.0229 153.452 37.3832 154.833 39.0237 155.855C39.242 155.99 39.5045 156.241 39.2006 156.508C38.7789 156.879 38.6136 157.502 38.0222 157.744Z" fill="white"/>
<path d="M88.8041 43.8507C86.6654 43.4869 84.7032 43.1622 82.7458 42.8129C82.2867 42.7308 82.4477 42.3675 82.5011 42.0723C83.1709 38.3629 83.8532 34.6553 84.4975 30.9415C84.6417 30.1202 84.9302 29.9018 85.7908 30.1067C87.5218 30.5173 89.2839 30.783 91.0389 31.0729C91.712 31.185 91.4471 31.6251 91.3567 31.9382C91.2216 32.4059 91.5308 33.2427 90.5191 33.0909C89.5719 32.9494 88.6069 32.8929 87.6785 32.675C87.0943 32.5378 86.9058 32.7281 86.8203 33.2286C86.814 33.2663 86.7957 33.3026 86.7919 33.3407C86.5404 35.795 85.7855 35.3109 88.4329 35.8047C88.5834 35.8327 88.7348 35.8564 88.8858 35.8839C90.3004 36.1438 90.4004 36.3506 89.9917 37.7527C89.8729 38.1594 89.7114 38.2392 89.3508 38.1469C89.0926 38.0807 88.8267 38.0454 88.5637 37.9966C85.9192 37.5082 85.9452 37.5135 85.5346 40.1954C85.4384 40.8186 85.6274 41.0239 86.187 41.1085C87.0578 41.2399 87.918 41.4249 88.7897 41.5636C89.2613 41.6385 89.6657 41.7955 89.4585 42.3554C89.2657 42.8816 89.6061 43.7478 88.8041 43.8507Z" fill="white"/>
<path d="M24.9243 152.174C23.5266 152.183 22.5544 151.412 21.7817 150.364C21.2624 149.659 20.7917 149.558 20.1796 150.219C19.4747 150.978 18.5136 151.43 17.815 152.213C17.376 152.704 16.8533 152.823 16.4134 152.133C16.2852 151.895 16.1125 151.684 15.9047 151.512C15.0873 150.944 15.5258 150.58 16.0519 150.152C18.2783 148.338 20.496 146.512 22.7048 144.676C23.4145 144.088 24.1179 143.492 24.8036 142.877C25.1152 142.597 25.4037 142.513 25.6744 142.87C26.8259 144.384 28.3582 145.608 29.04 147.487C29.2543 148.064 29.2496 148.701 29.027 149.275C28.5467 150.645 26.3667 152.176 24.9243 152.174ZM26.6264 147.59C26.5968 147.116 26.4119 146.664 26.1003 146.306C25.8479 146.001 25.6368 145.529 25.1094 146.002C24.3983 146.641 23.6597 147.249 22.9265 147.862C22.7048 148.047 22.4668 148.315 22.7188 148.522C23.4011 149.083 24.0256 149.943 25.0892 149.515C25.508 149.386 25.8787 149.134 26.1529 148.791C26.4271 148.447 26.5922 148.029 26.6268 147.59H26.6264Z" fill="white"/>
<path d="M120.257 44.4609C120.481 44.6605 120.615 44.787 120.757 44.9054C122.154 46.0794 123.549 47.2568 124.955 48.4207C125.296 48.7028 125.712 49.0004 125.147 49.3681C124.72 49.6459 124.628 50.7996 123.696 49.9734C123.071 49.4183 122.307 49.0135 121.713 48.4313C121.085 47.8158 120.761 48.0177 120.288 48.6086C119.055 50.1449 119.029 50.1242 120.568 51.3503C120.757 51.4819 120.939 51.6235 121.113 51.7745C121.52 52.1765 122.33 52.3963 121.552 53.25C120.914 53.9515 120.475 54.2501 119.622 53.5008C117.758 51.8629 117.747 51.932 116.059 53.7558C115.507 54.352 115.524 54.7313 116.15 55.1637C116.789 55.6053 117.298 56.2111 118.039 56.5329C118.712 56.8252 118.603 57.2126 118.188 57.7813C117.55 58.6577 117.071 58.8403 116.206 58.0132C115.045 56.902 113.75 55.9314 112.5 54.9163C112.082 54.5781 112.075 54.3201 112.433 53.8921C114.852 51.0035 117.241 48.0897 119.64 45.1851C119.83 44.9523 120.03 44.7257 120.257 44.4609Z" fill="white"/>
<path d="M13.2426 109.151C13.469 113.227 10.6793 115.139 7.39011 113.648C5.90632 112.976 5.41541 111.648 5.40291 110.163C5.39329 109.081 4.90862 108.892 4.00854 109.008C3.24886 109.105 2.48102 109.148 1.71509 109.197C-0.268266 109.323 0.231755 109.324 0.0432761 107.544C0.00144545 107.151 -0.149048 106.709 0.555343 106.661C4.45602 106.394 8.35509 106.105 12.2526 105.795C12.8238 105.75 13.0012 106.04 13.0397 106.519C13.1219 107.558 13.1998 108.596 13.2426 109.151ZM9.57299 108.523V108.562C9.15276 108.562 8.73255 108.547 8.31376 108.566C7.32713 108.61 7.19875 109.231 7.46609 109.991C7.57043 110.341 7.75799 110.659 8.01252 110.92C8.26705 111.18 8.58086 111.374 8.92678 111.484C9.26391 111.605 9.63022 111.617 9.97439 111.518C10.3186 111.419 10.6234 111.215 10.8462 110.934C11.1014 110.643 11.273 110.288 11.3425 109.907C11.412 109.526 11.3767 109.133 11.2405 108.771C11.0097 108.191 10.2178 108.629 9.68744 108.524C9.64942 108.52 9.61109 108.519 9.57299 108.522V108.523Z" fill="white"/>
<path d="M101.213 162.581C101.872 162.797 101.827 163.533 102.103 164.04C102.391 164.571 101.846 164.53 101.589 164.696C100.717 165.26 99.6321 165.216 98.733 165.735C98.3003 165.984 98.0459 166.105 98.5339 166.526C98.6372 166.638 98.7162 166.769 98.7661 166.913C99.5379 168.637 99.522 168.591 101.426 167.976C102.027 167.782 102.828 166.864 103.364 168.212C103.693 169.04 103.812 169.622 102.705 169.763C102.667 169.774 102.632 169.79 102.599 169.811C100.122 170.862 100.14 170.855 101.205 173.362C101.428 173.889 101.629 173.974 102.145 173.749C102.985 173.384 103.896 173.177 104.72 172.782C105.513 172.402 105.62 172.984 105.676 173.428C105.736 173.895 106.634 174.499 105.517 174.881C103.857 175.449 102.191 176.013 100.574 176.692C99.8533 176.994 99.6711 176.734 99.4489 176.152C98.3113 173.174 97.141 170.21 96 167.231C95.1528 165.017 95.1673 165.012 97.4228 164.105L101.213 162.581Z" fill="white"/>
<path d="M52.4614 34.0708C52.1503 33.0799 52.4643 32.4925 53.4975 32.363C53.6875 32.3339 53.8717 32.2747 54.0432 32.1876C55.1188 31.6735 55.7588 31.9026 56.3411 33.0635C57.9936 36.357 59.7846 39.5809 61.5608 42.8101C61.8665 43.3662 61.7704 43.5546 61.2006 43.6474C61.0511 43.6816 60.9064 43.7348 60.7703 43.8059C59.7043 44.2861 59.0264 44.0329 58.6605 42.8444C58.5307 42.4236 58.4826 41.4704 57.6104 41.9536C56.831 42.385 55.2434 41.899 55.579 43.7348C55.8357 45.1408 55.1914 45.7157 53.6947 45.7688C53.1345 45.7886 53.2942 45.4471 53.2764 45.1838C53.0792 42.3106 52.8917 39.4345 52.6955 36.5628C52.6388 35.7202 52.3503 34.9033 52.4614 34.0708ZM54.2515 33.5829C54.2442 35.871 54.865 37.9721 55.0063 40.1244C55.0057 40.2032 55.0257 40.2808 55.0642 40.3494C55.1027 40.4181 55.1585 40.4753 55.2259 40.5156C55.2933 40.5558 55.37 40.5776 55.4484 40.5787C55.5268 40.5798 55.6042 40.5603 55.6727 40.522C56.0263 40.3794 56.3923 40.2702 56.7661 40.1959C57.4916 40.0824 57.5195 39.7418 57.2161 39.1659C56.6151 38.0252 56.0761 36.8512 55.4655 35.7159C55.1006 35.0371 55.0631 34.1684 54.2515 33.5829Z" fill="white"/>
<path d="M74.1851 167.938C73.2821 169.728 72.5926 171.409 71.6315 172.914C70.565 174.584 70.254 176.385 70.1294 178.277C70.1217 178.392 70.1155 178.507 70.1073 178.622C69.9679 180.548 69.3697 180.946 67.547 180.375C67.2219 180.273 67.2585 180.133 67.3066 179.88C67.3681 179.581 67.321 179.259 67.3844 178.962C68.1826 175.194 66.8931 171.734 65.7646 168.269C65.4165 167.201 65.8069 167.136 66.6618 167.2C68.3927 167.329 68.4268 167.35 68.7293 169.084C68.8817 169.954 69.0812 170.82 69.2673 171.686C69.2789 171.74 69.3596 171.778 69.5077 171.918C70.0062 170.894 70.4525 169.846 70.8449 168.777C71.1333 167.863 71.6454 167.698 72.4758 167.852C73.0432 167.916 73.6141 167.945 74.1851 167.938Z" fill="white"/>
<path d="M62.2788 166.923C62.3103 167.124 62.288 167.328 62.2144 167.517C62.1407 167.705 62.0184 167.871 61.8599 167.996C61.7015 168.121 61.5126 168.202 61.3129 168.229C61.1132 168.256 60.9099 168.23 60.7239 168.152C59.7791 167.88 59.1372 167.771 58.817 169.122C58.1785 171.803 57.2817 174.423 56.4562 177.056C56.3451 177.41 56.3966 178.077 55.8638 178.02C55.1131 177.898 54.3803 177.682 53.6824 177.379C53.6826 177.088 53.7313 176.799 53.8266 176.524C54.6358 173.762 55.4306 170.995 56.2874 168.248C56.5653 167.357 56.4797 166.899 55.4561 166.671C54.0257 166.351 54.0392 166.236 54.557 164.92C54.7291 164.482 54.8878 164.329 55.3821 164.478C57.4337 165.097 59.5026 165.658 61.5552 166.273C61.8321 166.355 62.2928 166.334 62.2788 166.923Z" fill="white"/>
<path d="M141.577 75.4729C140.626 75.8729 139.732 76.2222 138.861 76.6193C136.769 77.573 134.684 78.5412 132.607 79.5239C132.174 79.7297 131.982 79.6925 131.729 79.234C130.816 77.5774 130.768 77.5508 132.46 76.7377C134.737 75.6429 137.022 74.5573 139.354 73.5925C140.37 73.1722 140.841 72.8277 140.096 71.7566C139.659 71.1286 139.668 70.6179 140.586 70.2179C141.379 69.872 141.67 69.9319 142.007 70.7237C142.776 72.5282 143.569 74.3278 144.484 76.0594C144.957 76.9546 144.337 77.0213 143.859 77.2566C143.381 77.4918 142.874 78.0103 142.541 77.0411C142.396 76.4278 142.058 75.8778 141.577 75.4729Z" fill="white"/>
<path d="M135.861 151.212C135.585 151.008 135.401 150.87 135.216 150.734C132.253 148.56 129.302 146.373 126.321 144.23C125.644 143.744 125.269 143.351 126.039 142.654C126.197 142.486 126.32 142.287 126.4 142.069C126.71 141.377 127.116 141.315 127.711 141.768C129.569 143.18 131.446 144.566 133.315 145.963C134.51 146.858 135.684 147.782 136.907 148.636C137.418 148.993 137.46 149.268 137.062 149.717C136.64 150.194 136.262 150.709 135.861 151.212Z" fill="white"/>
<path d="M141.045 55.5754C140.207 55.5754 140.236 54.7106 139.849 54.2642C140.24 54.7115 140.63 55.1586 141.022 55.6053L141.045 55.5754Z" fill="white"/>
<path d="M82.7175 142.057C80.2332 139.033 77.4738 136.49 74.9533 133.718C72.631 131.164 70.0972 128.807 67.7042 126.316C65.2837 123.795 62.9369 121.203 60.5328 118.666C58.6349 116.663 56.7116 114.684 54.7631 112.73C54.3784 112.347 54.0736 111.904 53.6788 111.542C53.4572 111.34 53.2327 111.014 52.9095 111.122C52.5441 111.244 52.6615 111.642 52.6615 111.934C52.6648 114.869 52.6826 117.804 52.6845 120.739C52.6893 127.527 52.7413 134.315 52.6514 141.103C52.6278 142.902 53.9462 142.26 54.7328 142.573C55.1064 142.722 55.5627 142.576 55.6242 143.208C55.7031 144.013 55.2569 144.077 54.6458 144.073C51.4171 144.062 48.1885 144.073 44.9593 144.073C43.2688 144.073 41.5782 144.084 39.8877 144.062C39.5074 144.058 38.9713 144.207 38.9496 143.525C38.9323 142.983 39.0319 142.527 39.6987 142.454C40.0336 142.37 40.3744 142.313 40.7181 142.282C42.072 142.354 42.1821 141.545 42.1653 140.467C42.097 136.179 42.0613 131.89 42.0581 127.6C42.0183 110.237 41.9852 92.8737 41.9586 75.5098C41.9557 73.9386 41.9494 73.9377 40.407 73.7903C40.0232 73.784 39.6405 73.7465 39.2626 73.6782C38.8001 73.555 38.9429 73.1246 38.9593 72.8004C38.9891 72.2042 39.4684 72.3255 39.8247 72.324C43.0532 72.3108 46.282 72.3053 49.5112 72.3076C51.2796 72.3076 53.0479 72.309 54.816 72.3119C55.2545 72.3119 55.679 72.2989 55.6762 72.94C55.6762 73.483 55.5357 73.7449 54.9068 73.8033C52.434 74.0328 52.4008 74.0623 52.4465 76.5359C52.5081 79.8695 52.4504 83.2079 52.5336 86.5459C52.6485 91.166 52.5658 95.791 52.5581 100.412C52.5581 100.757 52.4258 101.22 52.7533 101.359C53.1144 101.512 53.3067 101.045 53.5399 100.803C58.7365 95.4002 63.9335 89.9965 69.1307 84.5916C71.5463 82.0682 73.8845 79.4704 76.3261 76.9727C77.231 76.047 78.1205 75.1189 79.0773 74.0517C78.2638 73.9478 77.5949 73.8198 76.9218 73.7893C76.378 73.7647 76.0693 73.6603 76.0813 73.0105C76.0938 72.3288 76.4751 72.2921 76.9833 72.2936C79.8682 72.3018 82.7488 72.3105 85.6317 72.2936C89.3474 72.2728 93.0636 72.2308 96.7794 72.1916C97.3294 72.1858 97.8371 72.0902 97.8492 72.9574C97.8607 73.7927 97.4073 73.7676 96.8274 73.7787C95.0614 73.8164 93.8656 74.745 92.7112 76.0673C90.6437 78.4385 88.3276 80.5894 86.151 82.8668C82.0703 87.1372 78.0315 91.4477 73.9437 95.7113C71.0843 98.6937 68.171 101.624 65.289 104.585C65.1179 104.793 64.9654 105.015 64.8332 105.249C64.5342 105.693 63.7057 105.958 63.8413 106.423C64.0178 107.031 64.5938 107.55 65.0683 108.038C67.6768 110.715 70.1587 113.513 72.7349 116.218C76.6001 120.276 80.3577 124.435 84.1922 128.522C87.7502 132.314 91.3668 136.046 94.783 139.969C95.8807 141.229 97.0169 142.486 98.9368 142.428C99.072 142.404 99.2111 142.415 99.341 142.46C99.471 142.504 99.5878 142.581 99.6805 142.682C99.7732 142.784 99.8389 142.908 99.8715 143.042C99.9041 143.176 99.9026 143.316 99.8671 143.449C99.7758 144.151 99.2656 144.035 98.8223 144.035C92.7875 144.04 86.7525 144.043 80.7173 144.042C80.2808 144.042 79.8548 144.095 79.8298 143.45C79.8072 142.878 79.9259 142.469 80.5861 142.387C81.264 142.306 81.9376 142.181 82.7175 142.057Z" fill="#EC0E04"/>
</g>
<defs>
<clipPath id="clip0_337_154">
<rect width="160" height="189" fill="white"/>
</clipPath>
</defs>
</svg>
